<svg
    t="1630037277947"
    class="icon"
    viewBox="0 0 1024 1024"
    version="1.1"
    xmlns="http://www.w3.org/2000/svg"
    p-id="9590"
    width="24"
    height="24"
  >
    <path
      d="M0 175.9h484.6v86h-383v195.4h359.6v86H101.6v211.1h398.7v93.8H0V175.9z m1024 375.2v297H922.4V558.9c0-86-39.1-125.1-117.3-125.1-31.3 0-54.7 7.8-70.4 31.3-23.5 23.5-39.1 54.7-39.1 93.8v289.2H594.1V363.5h101.6V426c15.6-23.5 39.1-39.1 62.5-54.7 23.5-15.6 46.9-15.6 78.2-15.6 125.1-7.9 187.6 62.5 187.6 195.4z"
      p-id="9591"
      fill="#fff"
    ></path>
  </svg>