<svg id="svg" version="1.1" xmlns="http://www.w3.org/2000/svg" xmlns:xlink="http://www.w3.org/1999/xlink" width="400" height="400" viewBox="0, 0, 400,400"><g id="svgg"><path id="path0" d="M177.500 0.275 C 175.575 0.361,174.000 0.604,174.000 0.816 C 174.000 1.027,172.751 1.200,171.224 1.200 C 169.697 1.200,168.336 1.380,168.200 1.600 C 168.064 1.820,166.984 2.000,165.800 2.000 C 164.616 2.000,163.536 2.180,163.400 2.400 C 163.264 2.620,162.263 2.800,161.176 2.800 C 160.089 2.800,159.200 2.980,159.200 3.200 C 159.200 3.420,158.401 3.600,157.424 3.600 C 156.447 3.600,155.536 3.780,155.400 4.000 C 155.264 4.220,154.443 4.400,153.576 4.400 C 152.709 4.400,152.000 4.580,152.000 4.800 C 152.000 5.020,151.280 5.200,150.400 5.200 C 149.520 5.200,148.800 5.380,148.800 5.600 C 148.800 5.820,148.181 6.000,147.424 6.000 C 146.667 6.000,145.936 6.180,145.800 6.400 C 145.664 6.620,145.013 6.800,144.353 6.800 C 143.655 6.800,143.256 6.967,143.400 7.200 C 143.549 7.442,143.004 7.600,142.024 7.600 C 141.131 7.600,140.400 7.780,140.400 8.000 C 140.400 8.220,139.971 8.400,139.446 8.400 C 138.422 8.400,134.647 9.440,133.505 10.037 C 133.123 10.237,132.536 10.400,132.200 10.400 C 131.864 10.400,131.277 10.559,130.895 10.753 C 130.513 10.948,129.660 11.329,129.000 11.600 C 128.340 11.871,127.487 12.252,127.105 12.447 C 126.723 12.641,126.048 12.800,125.605 12.800 C 125.162 12.800,124.800 12.980,124.800 13.200 C 124.800 13.420,124.440 13.600,124.000 13.600 C 123.560 13.600,123.200 13.780,123.200 14.000 C 123.200 14.220,122.761 14.400,122.224 14.400 C 121.687 14.400,121.136 14.580,121.000 14.800 C 120.864 15.020,120.403 15.200,119.976 15.200 C 119.549 15.200,119.200 15.380,119.200 15.600 C 119.200 15.820,118.840 16.000,118.400 16.000 C 117.960 16.000,117.600 16.180,117.600 16.400 C 117.600 16.620,117.328 16.800,116.995 16.800 C 116.662 16.800,116.077 16.961,115.695 17.158 C 115.313 17.355,113.740 18.119,112.200 18.856 C 110.660 19.593,109.340 20.332,109.267 20.498 C 109.193 20.664,108.788 20.800,108.367 20.800 C 107.945 20.800,107.600 20.980,107.600 21.200 C 107.600 21.420,107.240 21.600,106.800 21.600 C 106.360 21.600,106.000 21.780,106.000 22.000 C 106.000 22.220,105.640 22.400,105.200 22.400 C 104.760 22.400,104.400 22.580,104.400 22.800 C 104.400 23.020,104.164 23.200,103.875 23.200 C 103.587 23.200,102.964 23.560,102.492 24.000 C 102.020 24.440,101.425 24.800,101.171 24.800 C 100.589 24.800,96.647 26.895,96.467 27.300 C 96.393 27.465,96.156 27.600,95.939 27.600 C 95.722 27.600,94.759 28.140,93.800 28.800 C 92.841 29.460,91.903 30.000,91.716 30.000 C 91.529 30.000,91.117 30.360,90.800 30.800 C 90.483 31.240,89.943 31.600,89.600 31.600 C 89.257 31.600,88.717 31.960,88.400 32.400 C 88.083 32.840,87.543 33.200,87.200 33.200 C 86.857 33.200,86.317 33.560,86.000 34.000 C 85.683 34.440,85.143 34.800,84.800 34.800 C 84.457 34.800,83.917 35.160,83.600 35.600 C 83.283 36.040,82.820 36.400,82.571 36.400 C 82.322 36.400,81.554 36.940,80.863 37.600 C 80.172 38.260,79.381 38.802,79.104 38.804 C 78.827 38.806,78.175 39.346,77.655 40.004 C 77.135 40.662,76.543 41.200,76.338 41.200 C 75.950 41.200,75.584 41.481,73.604 43.300 C 72.946 43.905,72.246 44.400,72.048 44.400 C 71.851 44.400,70.904 45.169,69.945 46.110 C 68.985 47.050,67.570 48.261,66.800 48.802 C 65.392 49.790,58.813 56.258,58.989 56.481 C 59.041 56.546,58.480 57.190,57.742 57.911 C 57.004 58.633,56.400 59.135,56.400 59.027 C 56.400 58.920,54.420 60.805,52.000 63.218 C 49.580 65.630,47.600 67.771,47.600 67.975 C 47.600 68.180,46.700 69.271,45.600 70.400 C 44.500 71.529,43.600 72.594,43.600 72.765 C 43.600 72.937,43.229 73.510,42.776 74.039 C 42.322 74.567,41.602 75.406,41.176 75.903 C 40.749 76.400,40.400 76.920,40.400 77.060 C 40.400 77.199,39.860 77.829,39.200 78.460 C 38.540 79.091,38.000 79.787,38.000 80.007 C 38.000 80.227,37.460 80.972,36.800 81.663 C 36.140 82.354,35.600 83.122,35.600 83.371 C 35.600 83.620,35.240 84.083,34.800 84.400 C 34.360 84.717,34.000 85.257,34.000 85.600 C 34.000 85.943,33.640 86.483,33.200 86.800 C 32.760 87.117,32.400 87.657,32.400 88.000 C 32.400 88.343,32.040 88.883,31.600 89.200 C 31.160 89.517,30.800 90.057,30.800 90.400 C 30.800 90.743,30.440 91.283,30.000 91.600 C 29.560 91.917,29.200 92.414,29.200 92.705 C 29.200 92.996,28.849 93.610,28.420 94.071 C 27.991 94.531,27.353 95.469,27.002 96.154 C 26.651 96.839,26.026 97.940,25.611 98.600 C 25.197 99.260,24.845 100.115,24.829 100.500 C 24.813 100.885,24.620 101.200,24.400 101.200 C 24.180 101.200,24.000 101.478,24.000 101.817 C 24.000 102.156,23.640 102.820,23.200 103.292 C 22.760 103.764,22.400 104.387,22.400 104.675 C 22.400 104.964,22.220 105.200,22.000 105.200 C 21.780 105.200,21.600 105.560,21.600 106.000 C 21.600 106.440,21.420 106.800,21.200 106.800 C 20.980 106.800,20.800 107.145,20.800 107.567 C 20.800 107.988,20.663 108.393,20.496 108.467 C 20.014 108.678,16.793 115.325,16.797 116.100 C 16.799 116.485,16.620 116.800,16.400 116.800 C 16.180 116.800,16.000 117.160,16.000 117.600 C 16.000 118.040,15.820 118.400,15.600 118.400 C 15.380 118.400,15.200 118.760,15.200 119.200 C 15.200 119.640,15.020 120.000,14.800 120.000 C 14.580 120.000,14.400 120.349,14.400 120.776 C 14.400 121.203,14.220 121.664,14.000 121.800 C 13.780 121.936,13.600 122.487,13.600 123.024 C 13.600 123.561,13.420 124.000,13.200 124.000 C 12.980 124.000,12.800 124.360,12.800 124.800 C 12.800 125.240,12.620 125.600,12.400 125.600 C 12.180 125.600,12.000 125.962,12.000 126.405 C 12.000 126.848,11.841 127.523,11.647 127.905 C 10.390 130.376,8.400 136.446,8.400 137.808 C 8.400 138.354,8.220 138.800,8.000 138.800 C 7.780 138.800,7.600 139.340,7.600 140.000 C 7.600 140.660,7.420 141.200,7.200 141.200 C 6.980 141.200,6.800 141.830,6.800 142.600 C 6.800 143.370,6.620 144.000,6.400 144.000 C 6.180 144.000,6.000 144.529,6.000 145.176 C 6.000 145.823,5.820 146.464,5.600 146.600 C 5.380 146.736,5.200 147.467,5.200 148.224 C 5.200 148.981,5.020 149.600,4.800 149.600 C 4.580 149.600,4.400 150.320,4.400 151.200 C 4.400 152.080,4.220 152.800,4.000 152.800 C 3.780 152.800,3.600 153.509,3.600 154.376 C 3.600 155.243,3.420 156.064,3.200 156.200 C 2.980 156.336,2.800 157.247,2.800 158.224 C 2.800 159.201,2.620 160.000,2.400 160.000 C 2.180 160.000,2.000 160.990,2.000 162.200 C 2.000 163.410,1.820 164.400,1.600 164.400 C 1.380 164.400,1.200 165.354,1.200 166.520 C 1.200 167.686,0.975 168.865,0.700 169.140 C 0.309 169.531,0.200 176.245,0.200 200.000 C 0.200 223.755,0.309 230.469,0.700 230.860 C 0.975 231.135,1.200 232.303,1.200 233.456 C 1.200 234.609,1.380 235.664,1.600 235.800 C 1.820 235.936,2.000 236.937,2.000 238.024 C 2.000 239.111,2.180 240.000,2.400 240.000 C 2.620 240.000,2.800 240.799,2.800 241.776 C 2.800 242.753,2.980 243.664,3.200 243.800 C 3.420 243.936,3.600 244.757,3.600 245.624 C 3.600 246.491,3.780 247.200,4.000 247.200 C 4.220 247.200,4.400 247.920,4.400 248.800 C 4.400 249.680,4.580 250.400,4.800 250.400 C 5.020 250.400,5.200 251.019,5.200 251.776 C 5.200 252.533,5.380 253.264,5.600 253.400 C 5.820 253.536,6.000 254.177,6.000 254.824 C 6.000 255.471,6.180 256.000,6.400 256.000 C 6.620 256.000,6.800 256.630,6.800 257.400 C 6.800 258.170,6.980 258.800,7.200 258.800 C 7.420 258.800,7.600 259.340,7.600 260.000 C 7.600 260.660,7.780 261.200,8.000 261.200 C 8.220 261.200,8.400 261.646,8.400 262.192 C 8.400 263.554,10.390 269.624,11.647 272.095 C 11.841 272.477,12.000 273.152,12.000 273.595 C 12.000 274.038,12.180 274.400,12.400 274.400 C 12.620 274.400,12.800 274.760,12.800 275.200 C 12.800 275.640,12.980 276.000,13.200 276.000 C 13.420 276.000,13.600 276.439,13.600 276.976 C 13.600 277.513,13.780 278.064,14.000 278.200 C 14.220 278.336,14.400 278.797,14.400 279.224 C 14.400 279.651,14.580 280.000,14.800 280.000 C 15.020 280.000,15.200 280.360,15.200 280.800 C 15.200 281.240,15.380 281.600,15.600 281.600 C 15.820 281.600,16.000 281.872,16.000 282.205 C 16.000 282.538,16.162 283.123,16.359 283.505 C 16.557 283.887,17.500 285.820,18.455 287.800 C 19.411 289.780,20.329 291.460,20.496 291.533 C 20.663 291.607,20.800 292.012,20.800 292.433 C 20.800 292.855,20.980 293.200,21.200 293.200 C 21.420 293.200,21.600 293.560,21.600 294.000 C 21.600 294.440,21.780 294.800,22.000 294.800 C 22.220 294.800,22.400 295.036,22.400 295.325 C 22.400 295.613,22.760 296.236,23.200 296.708 C 23.640 297.180,24.000 297.844,24.000 298.183 C 24.000 298.522,24.180 298.800,24.400 298.800 C 24.620 298.800,24.813 299.115,24.829 299.500 C 24.845 299.885,25.203 300.740,25.625 301.400 C 26.046 302.060,26.513 302.870,26.663 303.200 C 26.812 303.530,27.444 304.552,28.067 305.472 C 28.690 306.392,29.200 307.297,29.200 307.484 C 29.200 307.671,29.560 308.083,30.000 308.400 C 30.440 308.717,30.800 309.257,30.800 309.600 C 30.800 309.943,31.160 310.483,31.600 310.800 C 32.040 311.117,32.400 311.657,32.400 312.000 C 32.400 312.343,32.760 312.883,33.200 313.200 C 33.640 313.517,34.000 314.057,34.000 314.400 C 34.000 314.743,34.360 315.283,34.800 315.600 C 35.240 315.917,35.600 316.380,35.600 316.629 C 35.600 316.878,36.140 317.646,36.800 318.337 C 37.460 319.028,38.000 319.792,38.000 320.036 C 38.000 320.280,38.540 320.983,39.200 321.600 C 39.860 322.217,40.400 322.827,40.400 322.957 C 40.400 323.088,40.749 323.600,41.176 324.097 C 41.602 324.594,42.322 325.433,42.776 325.961 C 43.229 326.490,43.600 327.063,43.600 327.235 C 43.600 327.406,44.500 328.471,45.600 329.600 C 46.700 330.729,47.600 331.819,47.600 332.022 C 47.600 332.384,55.505 340.329,58.024 342.500 C 58.726 343.105,59.195 343.600,59.067 343.600 C 58.939 343.600,60.627 345.400,62.819 347.600 C 65.012 349.800,66.968 351.600,67.167 351.600 C 67.366 351.600,68.558 352.590,69.818 353.800 C 71.077 355.010,72.263 356.000,72.453 356.000 C 72.643 356.000,73.466 356.630,74.282 357.400 C 75.099 358.170,75.979 358.800,76.238 358.800 C 76.498 358.800,77.135 359.338,77.655 359.996 C 78.175 360.654,78.827 361.194,79.104 361.196 C 79.381 361.198,80.172 361.740,80.863 362.400 C 81.554 363.060,82.322 363.600,82.571 363.600 C 82.820 363.600,83.283 363.960,83.600 364.400 C 83.917 364.840,84.457 365.200,84.800 365.200 C 85.143 365.200,85.683 365.560,86.000 366.000 C 86.317 366.440,86.857 366.800,87.200 366.800 C 87.543 366.800,88.083 367.160,88.400 367.600 C 88.717 368.040,89.257 368.400,89.600 368.400 C 89.943 368.400,90.483 368.760,90.800 369.200 C 91.117 369.640,91.529 370.000,91.716 370.000 C 91.903 370.000,92.841 370.540,93.800 371.200 C 94.759 371.860,95.737 372.400,95.972 372.400 C 96.207 372.400,96.400 372.580,96.400 372.800 C 96.400 373.020,96.597 373.200,96.838 373.200 C 97.079 373.200,97.765 373.548,98.363 373.973 C 98.960 374.399,99.972 374.878,100.611 375.039 C 101.250 375.199,102.128 375.661,102.562 376.065 C 102.996 376.469,103.587 376.800,103.875 376.800 C 104.164 376.800,104.400 376.980,104.400 377.200 C 104.400 377.420,104.760 377.600,105.200 377.600 C 105.640 377.600,106.000 377.780,106.000 378.000 C 106.000 378.220,106.360 378.400,106.800 378.400 C 107.240 378.400,107.600 378.580,107.600 378.800 C 107.600 379.020,107.945 379.200,108.367 379.200 C 108.788 379.200,109.193 379.336,109.267 379.502 C 109.340 379.668,110.660 380.407,112.200 381.144 C 113.740 381.881,115.313 382.645,115.695 382.842 C 116.077 383.039,116.662 383.200,116.995 383.200 C 117.328 383.200,117.600 383.380,117.600 383.600 C 117.600 383.820,117.960 384.000,118.400 384.000 C 118.840 384.000,119.200 384.180,119.200 384.400 C 119.200 384.620,119.549 384.800,119.976 384.800 C 120.403 384.800,120.864 384.980,121.000 385.200 C 121.136 385.420,121.687 385.600,122.224 385.600 C 122.761 385.600,123.200 385.780,123.200 386.000 C 123.200 386.220,123.560 386.400,124.000 386.400 C 124.440 386.400,124.800 386.580,124.800 386.800 C 124.800 387.020,125.162 387.200,125.605 387.200 C 126.048 387.200,126.723 387.359,127.105 387.553 C 127.487 387.748,128.340 388.129,129.000 388.400 C 129.660 388.671,130.513 389.052,130.895 389.247 C 131.277 389.441,131.941 389.600,132.371 389.600 C 132.801 389.600,133.264 389.780,133.400 390.000 C 133.536 390.220,134.076 390.400,134.600 390.400 C 135.124 390.400,135.656 390.567,135.783 390.772 C 135.909 390.977,137.000 391.267,138.206 391.418 C 139.413 391.569,140.400 391.851,140.400 392.046 C 140.400 392.241,141.131 392.400,142.024 392.400 C 143.004 392.400,143.549 392.558,143.400 392.800 C 143.256 393.033,143.655 393.200,144.353 393.200 C 145.013 393.200,145.664 393.380,145.800 393.600 C 145.936 393.820,146.667 394.000,147.424 394.000 C 148.181 394.000,148.800 394.180,148.800 394.400 C 148.800 394.620,149.520 394.800,150.400 394.800 C 151.280 394.800,152.000 394.980,152.000 395.200 C 152.000 395.420,152.709 395.600,153.576 395.600 C 154.443 395.600,155.264 395.780,155.400 396.000 C 155.536 396.220,156.447 396.400,157.424 396.400 C 158.401 396.400,159.200 396.580,159.200 396.800 C 159.200 397.020,160.100 397.200,161.200 397.200 C 162.300 397.200,163.200 397.380,163.200 397.600 C 163.200 397.822,164.259 398.000,165.576 398.000 C 166.883 398.000,168.064 398.180,168.200 398.400 C 168.336 398.620,169.682 398.800,171.190 398.800 C 173.029 398.800,173.988 398.965,174.100 399.300 C 174.338 400.014,223.022 400.030,224.439 399.317 C 224.968 399.051,226.480 398.738,227.800 398.622 C 233.999 398.075,235.200 397.904,235.200 397.564 C 235.200 397.364,236.100 397.200,237.200 397.200 C 238.300 397.200,239.200 397.020,239.200 396.800 C 239.200 396.580,239.999 396.400,240.976 396.400 C 241.953 396.400,242.864 396.220,243.000 396.000 C 243.136 395.780,243.957 395.600,244.824 395.600 C 245.691 395.600,246.400 395.420,246.400 395.200 C 246.400 394.980,247.120 394.800,248.000 394.800 C 248.880 394.800,249.600 394.620,249.600 394.400 C 249.600 394.180,250.320 394.000,251.200 394.000 C 252.080 394.000,252.800 393.820,252.800 393.600 C 252.800 393.380,253.340 393.200,254.000 393.200 C 254.660 393.200,255.200 393.020,255.200 392.800 C 255.200 392.580,255.830 392.400,256.600 392.400 C 257.370 392.400,258.000 392.241,258.000 392.046 C 258.000 391.851,258.987 391.569,260.194 391.418 C 261.400 391.267,262.491 390.977,262.617 390.772 C 262.744 390.567,263.276 390.400,263.800 390.400 C 264.324 390.400,264.864 390.220,265.000 390.000 C 265.136 389.780,265.599 389.600,266.029 389.600 C 266.459 389.600,267.168 389.420,267.605 389.200 C 268.042 388.980,268.758 388.620,269.195 388.400 C 269.632 388.180,270.352 388.000,270.795 388.000 C 271.238 388.000,271.600 387.820,271.600 387.600 C 271.600 387.380,272.050 387.200,272.600 387.200 C 273.150 387.200,273.600 387.020,273.600 386.800 C 273.600 386.580,273.960 386.400,274.400 386.400 C 274.840 386.400,275.200 386.220,275.200 386.000 C 275.200 385.780,275.740 385.600,276.400 385.600 C 277.060 385.600,277.600 385.420,277.600 385.200 C 277.600 384.980,277.960 384.800,278.400 384.800 C 278.840 384.800,279.200 384.620,279.200 384.400 C 279.200 384.180,279.560 384.000,280.000 384.000 C 280.440 384.000,280.800 383.820,280.800 383.600 C 280.800 383.380,281.072 383.200,281.405 383.200 C 281.993 383.200,282.418 383.033,284.295 382.062 C 284.787 381.808,285.462 381.600,285.795 381.600 C 286.128 381.600,286.400 381.420,286.400 381.200 C 286.400 380.980,286.760 380.800,287.200 380.800 C 287.640 380.800,288.001 380.665,288.001 380.500 C 288.002 380.335,288.992 379.750,290.200 379.200 C 291.408 378.650,292.398 378.065,292.399 377.900 C 292.399 377.735,292.760 377.600,293.200 377.600 C 293.640 377.600,294.000 377.420,294.000 377.200 C 294.000 376.980,294.320 376.800,294.712 376.800 C 295.103 376.800,295.683 376.440,296.000 376.000 C 296.317 375.560,296.853 375.200,297.191 375.200 C 297.789 375.200,301.598 373.333,302.000 372.844 C 302.317 372.457,304.531 371.173,305.300 370.929 C 305.685 370.807,306.000 370.548,306.000 370.353 C 306.000 370.159,306.270 370.000,306.600 370.000 C 306.930 370.000,307.200 369.850,307.200 369.668 C 307.200 369.485,307.695 369.081,308.300 368.770 C 308.905 368.460,309.691 367.889,310.047 367.503 C 310.403 367.116,310.948 366.800,311.259 366.800 C 311.569 366.800,312.083 366.440,312.400 366.000 C 312.717 365.560,313.257 365.200,313.600 365.200 C 313.943 365.200,314.483 364.840,314.800 364.400 C 315.117 363.960,315.625 363.600,315.928 363.600 C 316.231 363.600,316.983 363.060,317.600 362.400 C 318.217 361.740,318.937 361.200,319.200 361.200 C 319.463 361.200,320.160 360.685,320.748 360.056 C 321.335 359.427,322.210 358.787,322.690 358.635 C 323.171 358.482,324.011 357.827,324.557 357.179 C 325.102 356.530,325.716 356.000,325.920 356.000 C 326.125 356.000,327.323 355.010,328.582 353.800 C 329.842 352.590,331.036 351.600,331.236 351.600 C 331.725 351.600,351.200 332.081,351.200 331.590 C 351.200 331.378,352.100 330.285,353.200 329.161 C 354.300 328.038,355.200 326.910,355.200 326.654 C 355.200 326.399,355.664 325.842,356.231 325.416 C 356.797 324.990,357.518 324.145,357.832 323.537 C 358.147 322.930,358.853 321.984,359.402 321.435 C 359.951 320.886,360.400 320.230,360.400 319.979 C 360.400 319.727,360.940 319.017,361.600 318.400 C 362.260 317.783,362.800 317.031,362.800 316.728 C 362.800 316.425,363.160 315.917,363.600 315.600 C 364.040 315.283,364.400 314.743,364.400 314.400 C 364.400 314.057,364.760 313.517,365.200 313.200 C 365.640 312.883,366.000 312.343,366.000 312.000 C 366.000 311.657,366.360 311.117,366.800 310.800 C 367.240 310.483,367.600 309.943,367.600 309.600 C 367.600 309.257,367.960 308.717,368.400 308.400 C 368.840 308.083,369.200 307.671,369.200 307.484 C 369.200 307.297,369.740 306.359,370.400 305.400 C 371.060 304.441,371.600 303.463,371.600 303.228 C 371.600 302.993,371.743 302.800,371.919 302.800 C 372.094 302.800,372.941 301.405,373.801 299.700 C 374.661 297.995,375.508 296.540,375.682 296.467 C 375.857 296.393,376.000 295.988,376.000 295.567 C 376.000 295.145,376.180 294.800,376.400 294.800 C 376.620 294.800,376.800 294.440,376.800 294.000 C 376.800 293.560,376.980 293.200,377.200 293.200 C 377.420 293.200,377.600 292.840,377.600 292.400 C 377.600 291.960,377.746 291.600,377.925 291.600 C 378.104 291.600,378.498 290.970,378.800 290.200 C 379.102 289.430,379.496 288.800,379.675 288.800 C 379.854 288.800,380.000 288.440,380.000 288.000 C 380.000 287.560,380.180 287.200,380.400 287.200 C 380.620 287.200,380.800 286.928,380.800 286.595 C 380.800 286.262,380.980 285.632,381.200 285.195 C 381.420 284.758,381.780 284.042,382.000 283.605 C 382.220 283.168,382.400 282.538,382.400 282.205 C 382.400 281.872,382.580 281.600,382.800 281.600 C 383.020 281.600,383.200 281.240,383.200 280.800 C 383.200 280.360,383.380 280.000,383.600 280.000 C 383.820 280.000,384.000 279.640,384.000 279.200 C 384.000 278.760,384.180 278.400,384.400 278.400 C 384.620 278.400,384.800 277.860,384.800 277.200 C 384.800 276.540,384.980 276.000,385.200 276.000 C 385.420 276.000,385.600 275.640,385.600 275.200 C 385.600 274.760,385.780 274.400,386.000 274.400 C 386.220 274.400,386.400 274.038,386.400 273.595 C 386.400 273.152,386.559 272.477,386.753 272.095 C 386.948 271.713,387.329 270.860,387.600 270.200 C 387.871 269.540,388.252 268.687,388.447 268.305 C 388.641 267.923,388.800 267.259,388.800 266.829 C 388.800 266.399,388.980 265.936,389.200 265.800 C 389.420 265.664,389.600 265.201,389.600 264.771 C 389.600 264.341,389.763 263.677,389.963 263.295 C 390.609 262.060,391.600 258.341,391.600 257.154 C 391.600 256.519,391.780 256.000,392.000 256.000 C 392.220 256.000,392.400 255.471,392.400 254.824 C 392.400 254.177,392.580 253.536,392.800 253.400 C 393.020 253.264,393.200 252.533,393.200 251.776 C 393.200 251.019,393.380 250.400,393.600 250.400 C 393.820 250.400,394.000 249.680,394.000 248.800 C 394.000 247.920,394.180 247.200,394.400 247.200 C 394.620 247.200,394.800 246.491,394.800 245.624 C 394.800 244.757,394.980 243.936,395.200 243.800 C 395.420 243.664,395.600 242.753,395.600 241.776 C 395.600 240.799,395.780 240.000,396.000 240.000 C 396.220 240.000,396.400 239.111,396.400 238.024 C 396.400 236.937,396.580 235.936,396.800 235.800 C 397.020 235.664,397.200 234.674,397.200 233.600 C 397.200 232.526,397.380 231.536,397.600 231.400 C 397.820 231.264,398.000 229.813,398.000 228.176 C 398.000 226.459,398.169 225.200,398.400 225.200 C 398.637 225.200,398.800 223.733,398.800 221.600 C 398.800 219.467,398.963 218.000,399.200 218.000 C 399.461 218.000,399.600 211.733,399.600 200.000 C 399.600 188.267,399.461 182.000,399.200 182.000 C 398.963 182.000,398.800 180.533,398.800 178.400 C 398.800 176.267,398.637 174.800,398.400 174.800 C 398.169 174.800,398.000 173.541,398.000 171.824 C 398.000 170.187,397.820 168.736,397.600 168.600 C 397.380 168.464,397.200 167.474,397.200 166.400 C 397.200 165.326,397.020 164.336,396.800 164.200 C 396.580 164.064,396.400 163.063,396.400 161.976 C 396.400 160.889,396.220 160.000,396.000 160.000 C 395.780 160.000,395.600 159.201,395.600 158.224 C 395.600 157.247,395.420 156.336,395.200 156.200 C 394.980 156.064,394.800 155.243,394.800 154.376 C 394.800 153.509,394.620 152.800,394.400 152.800 C 394.180 152.800,394.000 152.080,394.000 151.200 C 394.000 150.320,393.820 149.600,393.600 149.600 C 393.380 149.600,393.200 148.981,393.200 148.224 C 393.200 147.467,393.020 146.736,392.800 146.600 C 392.580 146.464,392.400 145.823,392.400 145.176 C 392.400 144.529,392.220 144.000,392.000 144.000 C 391.780 144.000,391.600 143.481,391.600 142.846 C 391.600 141.659,390.609 137.940,389.963 136.705 C 389.763 136.323,389.600 135.659,389.600 135.229 C 389.600 134.799,389.420 134.336,389.200 134.200 C 388.980 134.064,388.800 133.601,388.800 133.171 C 388.800 132.741,388.641 132.077,388.447 131.695 C 388.252 131.313,387.871 130.460,387.600 129.800 C 387.329 129.140,386.948 128.287,386.753 127.905 C 386.559 127.523,386.400 126.848,386.400 126.405 C 386.400 125.962,386.220 125.600,386.000 125.600 C 385.780 125.600,385.600 125.240,385.600 124.800 C 385.600 124.360,385.420 124.000,385.200 124.000 C 384.980 124.000,384.800 123.460,384.800 122.800 C 384.800 122.140,384.620 121.600,384.400 121.600 C 384.180 121.600,384.000 121.240,384.000 120.800 C 384.000 120.360,383.820 120.000,383.600 120.000 C 383.380 120.000,383.200 119.640,383.200 119.200 C 383.200 118.760,383.020 118.400,382.800 118.400 C 382.580 118.400,382.400 118.128,382.400 117.795 C 382.400 117.207,382.233 116.782,381.262 114.905 C 381.008 114.413,380.800 113.738,380.800 113.405 C 380.800 113.072,380.620 112.800,380.400 112.800 C 380.180 112.800,380.000 112.440,380.000 112.000 C 380.000 111.560,379.854 111.200,379.675 111.200 C 379.496 111.200,379.102 110.570,378.800 109.800 C 378.498 109.030,378.104 108.400,377.925 108.400 C 377.746 108.400,377.600 108.040,377.600 107.600 C 377.600 107.160,377.420 106.800,377.200 106.800 C 376.980 106.800,376.800 106.440,376.800 106.000 C 376.800 105.560,376.620 105.200,376.400 105.200 C 376.180 105.200,376.000 104.855,376.000 104.433 C 376.000 104.012,375.860 103.607,375.690 103.533 C 375.519 103.460,374.690 102.050,373.846 100.400 C 373.002 98.750,372.196 97.310,372.055 97.200 C 371.914 97.090,371.545 96.508,371.235 95.907 C 370.926 95.305,370.341 94.458,369.936 94.023 C 369.531 93.589,369.200 92.996,369.200 92.705 C 369.200 92.414,368.840 91.917,368.400 91.600 C 367.960 91.283,367.600 90.743,367.600 90.400 C 367.600 90.057,367.240 89.517,366.800 89.200 C 366.360 88.883,366.000 88.343,366.000 88.000 C 366.000 87.657,365.640 87.117,365.200 86.800 C 364.760 86.483,364.400 85.943,364.400 85.600 C 364.400 85.257,364.040 84.717,363.600 84.400 C 363.160 84.083,362.800 83.575,362.800 83.272 C 362.800 82.969,362.260 82.217,361.600 81.600 C 360.940 80.983,360.400 80.257,360.400 79.986 C 360.400 79.716,360.083 79.203,359.696 78.847 C 359.308 78.491,358.462 77.480,357.816 76.600 C 357.170 75.720,356.317 74.709,355.921 74.353 C 355.524 73.997,355.200 73.521,355.200 73.294 C 355.200 73.067,354.300 71.962,353.200 70.839 C 352.100 69.715,351.200 68.625,351.200 68.415 C 351.200 67.868,342.104 58.830,341.829 59.104 C 341.703 59.230,341.600 59.129,341.600 58.879 C 341.600 58.313,333.496 50.140,331.605 48.799 C 330.838 48.256,329.335 46.953,328.265 45.905 C 327.195 44.857,326.182 44.000,326.015 44.000 C 325.848 44.000,325.044 43.370,324.227 42.600 C 323.411 41.830,322.558 41.200,322.332 41.200 C 322.106 41.200,321.417 40.660,320.800 40.000 C 320.183 39.340,319.480 38.800,319.236 38.800 C 318.992 38.800,318.228 38.260,317.537 37.600 C 316.846 36.940,316.078 36.400,315.829 36.400 C 315.580 36.400,315.117 36.040,314.800 35.600 C 314.483 35.160,313.943 34.800,313.600 34.800 C 313.257 34.800,312.717 34.440,312.400 34.000 C 312.083 33.560,311.569 33.200,311.259 33.200 C 310.948 33.200,310.403 32.884,310.047 32.497 C 309.691 32.111,308.905 31.540,308.300 31.230 C 307.695 30.919,307.200 30.515,307.200 30.332 C 307.200 30.150,307.007 30.000,306.772 30.000 C 306.537 30.000,305.559 29.460,304.600 28.800 C 303.641 28.140,302.678 27.600,302.461 27.600 C 302.244 27.600,302.007 27.465,301.933 27.300 C 301.753 26.895,297.811 24.800,297.229 24.800 C 296.975 24.800,296.380 24.440,295.908 24.000 C 295.436 23.560,294.813 23.200,294.525 23.200 C 294.236 23.200,294.000 23.020,294.000 22.800 C 294.000 22.580,293.640 22.400,293.200 22.400 C 292.760 22.400,292.400 22.220,292.400 22.000 C 292.400 21.780,292.040 21.600,291.600 21.600 C 291.160 21.600,290.800 21.454,290.800 21.275 C 290.800 21.096,290.170 20.702,289.400 20.400 C 288.630 20.098,288.000 19.704,288.000 19.525 C 288.000 19.346,287.640 19.200,287.200 19.200 C 286.760 19.200,286.400 19.020,286.400 18.800 C 286.400 18.580,286.128 18.400,285.795 18.400 C 285.207 18.400,284.782 18.233,282.905 17.262 C 282.413 17.008,281.738 16.800,281.405 16.800 C 281.072 16.800,280.800 16.620,280.800 16.400 C 280.800 16.180,280.440 16.000,280.000 16.000 C 279.560 16.000,279.200 15.820,279.200 15.600 C 279.200 15.380,278.840 15.200,278.400 15.200 C 277.960 15.200,277.600 15.020,277.600 14.800 C 277.600 14.580,277.060 14.400,276.400 14.400 C 275.740 14.400,275.200 14.220,275.200 14.000 C 275.200 13.780,274.840 13.600,274.400 13.600 C 273.960 13.600,273.600 13.420,273.600 13.200 C 273.600 12.980,273.238 12.800,272.795 12.800 C 272.352 12.800,271.677 12.641,271.295 12.447 C 270.913 12.252,270.060 11.871,269.400 11.600 C 268.740 11.329,267.887 10.948,267.505 10.753 C 267.123 10.559,266.478 10.400,266.072 10.400 C 265.666 10.400,265.208 10.275,265.055 10.122 C 264.902 9.969,264.557 9.811,264.288 9.772 C 264.020 9.732,262.939 9.407,261.886 9.050 C 260.833 8.692,259.528 8.400,258.986 8.400 C 258.444 8.400,258.000 8.220,258.000 8.000 C 258.000 7.780,257.370 7.600,256.600 7.600 C 255.830 7.600,255.200 7.420,255.200 7.200 C 255.200 6.980,254.660 6.800,254.000 6.800 C 253.340 6.800,252.800 6.620,252.800 6.400 C 252.800 6.180,252.080 6.000,251.200 6.000 C 250.320 6.000,249.600 5.820,249.600 5.600 C 249.600 5.380,248.880 5.200,248.000 5.200 C 247.120 5.200,246.400 5.020,246.400 4.800 C 246.400 4.580,245.691 4.400,244.824 4.400 C 243.957 4.400,243.136 4.220,243.000 4.000 C 242.864 3.780,241.953 3.600,240.976 3.600 C 239.999 3.600,239.200 3.420,239.200 3.200 C 239.200 2.980,238.311 2.800,237.224 2.800 C 236.137 2.800,235.136 2.620,235.000 2.400 C 234.864 2.180,233.784 2.000,232.600 2.000 C 231.416 2.000,230.336 1.820,230.200 1.600 C 230.064 1.380,228.718 1.200,227.210 1.200 C 225.393 1.200,224.411 1.034,224.303 0.708 C 224.141 0.222,186.491 -0.126,177.500 0.275 M119.600 69.368 C 127.267 71.249,134.412 76.321,137.938 82.385 C 142.398 90.056,142.400 90.077,142.400 124.733 L 142.400 153.600 160.900 153.607 C 187.169 153.618,186.140 153.353,195.825 162.600 C 202.696 169.160,201.749 168.837,204.611 165.600 C 205.875 164.170,207.920 161.861,209.155 160.468 C 210.390 159.076,211.544 157.681,211.720 157.368 C 212.099 156.696,213.638 155.861,216.052 155.020 C 217.515 154.511,220.709 154.411,235.623 154.406 L 253.445 154.400 251.423 152.296 C 246.067 146.723,248.781 139.028,256.422 138.123 L 258.400 137.889 258.400 116.818 C 258.400 92.936,258.726 89.730,261.696 84.431 C 274.912 60.854,308.657 64.692,315.589 90.560 C 316.882 95.384,316.865 304.135,315.572 308.808 C 307.274 338.781,265.449 337.204,258.978 306.674 C 258.511 304.469,258.400 299.324,258.400 279.774 L 258.400 255.600 259.537 255.600 C 261.916 255.600,263.059 254.666,281.582 237.600 C 283.790 235.566,284.285 232.528,282.804 230.100 C 281.640 228.190,281.006 228.450,276.600 232.633 C 263.008 245.542,261.399 246.758,257.887 246.783 C 248.744 246.850,246.221 238.413,253.372 231.687 L 256.015 229.200 237.267 229.200 C 217.166 229.200,217.200 229.203,214.000 227.078 C 211.019 225.098,206.091 219.594,201.647 213.280 C 200.500 211.651,200.499 211.652,197.913 214.654 C 185.490 229.080,185.577 228.997,182.173 229.569 C 180.225 229.896,172.557 230.000,156.400 229.917 C 131.115 229.788,131.765 229.851,128.839 227.253 C 126.165 224.879,123.627 230.532,125.616 234.432 C 127.068 237.277,128.060 237.597,135.457 237.599 C 140.975 237.600,141.950 237.692,142.157 238.233 C 142.709 239.670,142.419 303.700,141.848 306.600 C 141.188 309.947,140.243 312.754,139.105 314.741 C 138.645 315.543,138.028 316.669,137.734 317.243 C 137.439 317.817,136.093 319.493,134.741 320.967 C 118.996 338.151,90.877 331.050,85.181 308.452 C 84.097 304.151,83.950 96.005,85.027 91.325 C 88.572 75.932,104.673 65.707,119.600 69.368 M286.520 172.750 C 285.904 173.383,283.049 176.038,280.176 178.650 C 265.026 192.426,265.417 191.971,267.300 193.663 C 269.885 195.985,268.734 196.591,277.961 188.051 C 280.250 185.933,283.448 183.029,285.068 181.597 C 289.205 177.943,290.100 175.701,288.590 172.780 C 287.844 171.338,287.895 171.339,286.520 172.750 M126.208 180.700 C 123.344 183.560,123.846 187.980,127.328 190.563 C 128.353 191.324,129.092 191.411,135.428 191.526 L 142.400 191.652 142.400 196.826 L 142.400 202.000 157.536 202.000 L 172.671 202.000 174.037 200.500 C 174.788 199.675,175.916 198.370,176.545 197.600 C 177.173 196.830,178.619 195.210,179.758 194.000 C 180.897 192.790,182.232 191.274,182.725 190.632 L 183.622 189.464 179.911 185.739 L 176.200 182.014 154.356 182.007 L 132.513 182.000 130.156 180.805 C 127.294 179.354,127.549 179.361,126.208 180.700 M225.460 183.310 C 222.960 185.910,219.398 190.092,219.287 190.558 C 219.179 191.012,221.506 194.332,222.822 195.600 C 223.165 195.930,223.705 196.577,224.022 197.037 C 224.340 197.498,225.303 198.713,226.163 199.737 L 227.726 201.600 239.039 201.600 C 250.236 201.600,251.381 201.469,250.518 200.282 C 249.691 199.145,249.134 196.630,249.363 195.062 C 249.526 193.943,249.409 193.025,249.003 192.254 C 247.663 189.708,248.902 184.420,251.167 183.020 C 252.506 182.193,250.195 182.000,238.936 182.000 L 226.720 182.000 225.460 183.310 " stroke="none" fill="#434b6b" fill-rule="evenodd"></path><path id="path1" d="M130.987 154.823 C 125.731 157.376,124.400 160.046,124.400 168.033 C 124.400 174.706,125.110 176.909,128.020 179.262 C 131.398 181.993,131.463 182.000,155.092 182.000 L 176.396 182.000 180.062 185.596 C 183.138 188.615,183.823 189.113,184.327 188.696 C 184.909 188.215,191.213 181.158,194.743 177.036 C 195.702 175.916,197.052 174.369,197.743 173.597 C 198.435 172.825,199.602 171.495,200.338 170.640 L 201.676 169.086 195.938 163.324 C 188.646 156.001,186.813 154.819,182.724 154.806 C 181.692 154.803,180.736 154.620,180.600 154.400 C 180.060 153.527,132.826 153.930,130.987 154.823 M212.968 197.524 C 209.948 200.976,206.448 204.970,205.189 206.400 C 200.320 211.931,200.503 211.629,201.378 212.695 C 201.696 213.083,203.835 215.753,206.131 218.628 C 210.673 224.317,212.785 226.352,215.687 227.836 L 217.573 228.800 236.720 228.800 C 247.251 228.800,255.963 228.896,256.080 229.014 C 256.198 229.131,255.070 230.409,253.574 231.854 C 250.157 235.152,249.457 236.554,249.681 239.647 C 250.147 246.096,258.413 249.030,263.405 244.519 C 265.835 242.322,274.688 234.121,277.400 231.553 C 278.940 230.095,280.920 228.296,281.800 227.555 C 291.752 219.176,291.796 216.805,282.166 207.800 C 279.108 204.940,275.074 201.150,273.203 199.378 C 271.331 197.606,268.835 195.311,267.656 194.278 L 265.512 192.399 263.656 193.944 C 259.359 197.522,254.516 197.885,251.098 194.888 C 249.575 193.553,249.308 197.905,250.785 199.979 C 251.233 200.609,251.600 201.231,251.600 201.362 C 251.600 201.493,246.112 201.600,239.405 201.600 L 227.211 201.600 223.305 196.631 C 221.157 193.898,219.188 191.569,218.929 191.455 C 218.670 191.341,215.988 194.072,212.968 197.524 " stroke="none" fill="#faf374" fill-rule="evenodd"></path><path id="path2" d="M254.126 138.930 C 248.237 141.102,247.229 147.677,252.051 152.468 C 253.085 153.495,253.826 154.440,253.699 154.568 C 253.571 154.696,245.352 154.803,235.433 154.806 C 213.126 154.813,214.675 154.422,208.457 161.613 C 206.399 163.993,204.418 166.269,204.056 166.670 C 203.693 167.072,200.883 170.280,197.811 173.800 C 194.739 177.320,192.129 180.290,192.012 180.400 C 191.895 180.510,190.629 181.948,189.200 183.597 C 187.770 185.245,186.041 187.225,185.357 187.997 C 184.673 188.768,181.553 192.325,178.424 195.900 L 172.734 202.400 154.067 202.402 C 132.546 202.405,132.114 202.459,128.679 205.584 C 127.270 206.866,126.899 207.470,125.656 210.519 C 125.405 211.134,125.200 213.601,125.200 216.000 C 125.200 218.399,125.405 220.866,125.656 221.481 C 126.868 224.452,127.225 225.074,128.272 226.036 C 132.161 229.607,132.104 229.600,158.376 229.600 C 187.126 229.600,184.156 230.301,191.411 221.800 C 192.725 220.260,193.893 218.910,194.008 218.800 C 194.122 218.690,195.382 217.250,196.808 215.601 C 198.233 213.951,199.674 212.331,200.008 212.001 C 200.342 211.670,202.262 209.510,204.273 207.200 C 206.285 204.890,211.352 199.088,215.533 194.306 C 219.715 189.524,223.803 184.799,224.617 183.806 L 226.096 182.000 238.825 182.000 C 250.767 182.000,252.939 182.184,251.488 183.075 C 248.123 185.142,247.727 190.927,250.731 194.146 C 254.515 198.201,259.373 197.681,264.783 192.640 C 266.662 190.889,270.450 187.360,273.200 184.798 C 275.950 182.236,280.241 178.263,282.736 175.970 C 287.445 171.642,288.400 170.230,288.400 167.600 C 288.400 164.543,287.712 163.559,281.568 157.834 C 279.936 156.313,275.990 152.611,272.800 149.608 C 263.556 140.904,262.122 139.662,260.568 139.013 C 258.859 138.298,255.942 138.261,254.126 138.930 " stroke="none" fill="#19f9f9" fill-rule="evenodd"></path><path id="path3" d="M108.400 69.809 C 101.884 71.147,98.251 73.070,93.327 77.788 C 91.497 79.542,90.000 81.105,90.000 81.262 C 90.000 81.419,89.464 82.414,88.808 83.473 C 87.290 85.928,86.114 89.339,85.387 93.400 C 84.651 97.515,84.502 301.277,85.232 305.376 C 86.086 310.170,88.720 316.711,90.574 318.644 C 90.808 318.889,91.648 319.789,92.441 320.644 C 94.491 322.859,96.709 324.800,97.189 324.800 C 97.415 324.800,97.600 324.980,97.600 325.200 C 97.600 325.420,97.855 325.600,98.167 325.600 C 98.478 325.600,98.793 325.735,98.867 325.900 C 98.992 326.182,102.041 327.733,103.800 328.409 C 109.496 330.598,119.307 330.192,124.495 327.553 C 124.877 327.359,125.462 327.200,125.795 327.200 C 126.128 327.200,126.400 327.020,126.400 326.800 C 126.400 326.580,126.593 326.400,126.828 326.400 C 128.893 326.400,138.000 317.310,138.000 315.249 C 138.000 315.002,138.180 314.800,138.400 314.800 C 138.620 314.800,138.800 314.440,138.800 314.000 C 138.800 313.560,138.980 313.200,139.200 313.200 C 139.420 313.200,139.600 312.761,139.600 312.224 C 139.600 311.687,139.780 311.136,140.000 311.000 C 140.220 310.864,140.400 310.349,140.400 309.856 C 140.400 309.363,140.563 308.789,140.761 308.580 C 141.561 307.738,141.704 302.865,141.856 271.300 L 142.014 238.400 135.994 238.400 C 128.451 238.400,124.800 236.888,124.800 233.764 C 124.800 233.260,124.620 232.736,124.400 232.600 C 124.180 232.464,124.000 231.924,124.000 231.400 C 124.000 230.876,124.180 230.336,124.400 230.200 C 124.620 230.064,124.800 229.586,124.800 229.137 C 124.800 227.341,127.355 225.683,128.569 226.691 C 129.026 227.072,128.851 226.757,128.180 225.991 C 127.022 224.671,126.704 224.103,125.650 221.481 C 125.063 220.022,125.068 211.961,125.656 210.519 C 126.899 207.470,127.270 206.866,128.679 205.584 C 131.337 203.165,133.730 202.406,138.700 202.402 L 142.000 202.400 142.000 197.250 L 142.000 192.099 134.795 191.929 L 127.589 191.759 125.795 189.859 C 123.120 187.028,123.097 183.357,125.736 180.603 C 127.096 179.183,127.360 178.699,126.955 178.363 C 124.192 176.070,123.231 164.503,125.436 160.078 C 127.624 155.688,130.946 154.000,137.401 154.000 L 142.010 154.000 141.852 124.700 C 141.699 96.399,141.540 91.433,140.763 90.620 C 140.563 90.411,140.400 89.914,140.400 89.515 C 140.400 89.116,140.240 88.477,140.044 88.095 C 139.848 87.713,139.270 86.500,138.759 85.400 C 133.502 74.072,120.403 67.345,108.400 69.809 M282.600 69.786 C 273.174 71.644,265.839 77.215,262.041 85.400 C 261.530 86.500,260.952 87.713,260.756 88.095 C 260.560 88.477,260.400 89.116,260.400 89.515 C 260.400 89.914,260.237 90.411,260.037 90.620 C 259.294 91.397,259.106 95.923,258.948 116.854 L 258.786 138.308 260.393 138.951 C 262.083 139.627,263.411 140.767,272.800 149.608 C 275.990 152.611,279.936 156.313,281.568 157.834 C 286.510 162.439,287.177 163.170,287.800 164.663 C 288.506 166.352,288.581 168.914,287.959 170.077 C 287.700 170.560,287.668 171.005,287.882 171.151 C 290.167 172.713,290.192 177.155,287.928 179.605 C 286.960 180.652,279.846 187.170,277.850 188.839 C 277.217 189.367,275.193 191.253,273.351 193.030 L 270.001 196.259 273.305 199.430 C 275.122 201.173,279.110 204.940,282.168 207.800 C 291.019 216.080,291.433 218.758,284.804 224.876 C 281.602 227.831,281.583 227.861,282.388 228.589 C 282.835 228.993,283.200 229.566,283.200 229.862 C 283.200 230.158,283.380 230.400,283.600 230.400 C 284.944 230.400,283.827 236.240,282.200 237.718 C 279.088 240.546,273.292 245.919,270.420 248.640 C 263.735 254.972,262.253 256.000,259.807 256.000 L 258.788 256.000 258.948 279.900 C 259.104 303.125,259.281 307.789,260.037 308.580 C 260.237 308.789,260.400 309.363,260.400 309.856 C 260.400 310.349,260.580 310.864,260.800 311.000 C 261.020 311.136,261.200 311.687,261.200 312.224 C 261.200 312.761,261.338 313.200,261.506 313.200 C 261.674 313.200,262.104 313.876,262.462 314.703 C 264.209 318.735,271.751 326.400,273.972 326.400 C 274.207 326.400,274.400 326.580,274.400 326.800 C 274.400 327.020,274.672 327.200,275.005 327.200 C 275.338 327.200,275.923 327.359,276.305 327.553 C 281.465 330.178,291.561 330.602,297.000 328.422 C 298.923 327.651,301.811 326.175,301.933 325.900 C 302.007 325.735,302.277 325.600,302.533 325.600 C 303.021 325.599,304.303 324.579,307.000 322.048 C 311.818 317.527,314.518 312.228,315.587 305.200 C 315.922 302.997,316.011 274.482,315.921 197.800 L 315.800 93.400 314.872 90.200 C 314.049 87.365,313.180 85.436,311.180 82.006 C 310.240 80.396,305.946 76.016,304.000 74.685 C 303.010 74.007,302.110 73.351,302.000 73.226 C 299.780 70.713,288.260 68.670,282.600 69.786 M184.575 188.500 L 183.400 189.800 184.700 188.625 C 185.912 187.530,186.184 187.200,185.875 187.200 C 185.806 187.200,185.221 187.785,184.575 188.500 M250.013 193.900 C 250.019 194.065,250.514 194.546,251.113 194.968 L 252.200 195.736 251.230 194.668 C 250.211 193.546,249.992 193.407,250.013 193.900 M133.000 229.200 C 133.440 229.389,134.160 229.538,134.600 229.532 C 135.243 229.523,135.204 229.457,134.400 229.200 C 133.032 228.762,131.981 228.762,133.000 229.200 " stroke="none" fill="#8494bc" fill-rule="evenodd"></path><path id="path4" d="M105.809 69.664 C 95.446 72.550,87.426 80.908,85.027 91.325 C 83.950 96.005,84.097 304.151,85.181 308.452 C 90.877 331.050,118.996 338.151,134.741 320.967 C 136.093 319.493,137.439 317.817,137.734 317.243 C 138.028 316.669,138.645 315.543,139.105 314.741 C 140.243 312.754,141.188 309.947,141.848 306.600 C 142.419 303.700,142.709 239.670,142.157 238.233 C 141.950 237.692,140.975 237.600,135.457 237.599 C 128.106 237.597,127.094 237.279,125.636 234.517 C 125.024 233.358,124.831 233.199,124.818 233.841 C 124.754 236.866,128.514 238.400,135.994 238.400 L 142.014 238.400 141.856 271.300 C 141.704 302.865,141.561 307.738,140.761 308.580 C 140.563 308.789,140.400 309.363,140.400 309.856 C 140.400 310.349,140.220 310.864,140.000 311.000 C 139.780 311.136,139.600 311.687,139.600 312.224 C 139.600 312.761,139.420 313.200,139.200 313.200 C 138.980 313.200,138.800 313.560,138.800 314.000 C 138.800 314.440,138.620 314.800,138.400 314.800 C 138.180 314.800,138.000 315.002,138.000 315.249 C 138.000 317.310,128.893 326.400,126.828 326.400 C 126.593 326.400,126.400 326.580,126.400 326.800 C 126.400 327.020,126.128 327.200,125.795 327.200 C 125.462 327.200,124.877 327.359,124.495 327.553 C 119.307 330.192,109.496 330.598,103.800 328.409 C 102.041 327.733,98.992 326.182,98.867 325.900 C 98.793 325.735,98.478 325.600,98.167 325.600 C 97.855 325.600,97.600 325.420,97.600 325.200 C 97.600 324.980,97.415 324.800,97.189 324.800 C 96.709 324.800,94.491 322.859,92.441 320.644 C 91.648 319.789,90.808 318.889,90.574 318.644 C 88.720 316.711,86.086 310.170,85.232 305.376 C 84.502 301.277,84.651 97.515,85.387 93.400 C 86.114 89.339,87.290 85.928,88.808 83.473 C 89.464 82.414,90.000 81.419,90.000 81.262 C 90.000 80.617,96.821 74.501,98.948 73.238 C 113.053 64.866,131.902 70.624,138.759 85.400 C 139.270 86.500,139.848 87.713,140.044 88.095 C 140.240 88.477,140.400 89.116,140.400 89.515 C 140.400 89.914,140.563 90.411,140.763 90.620 C 141.540 91.433,141.699 96.399,141.852 124.700 L 142.010 154.000 161.125 154.000 C 172.095 154.000,180.402 154.155,180.620 154.365 C 180.829 154.565,181.990 154.811,183.200 154.911 C 184.410 155.011,185.850 155.219,186.400 155.374 C 187.207 155.601,187.270 155.572,186.728 155.224 C 184.735 153.943,179.490 153.615,160.900 153.607 L 142.400 153.600 142.400 124.733 C 142.400 92.054,142.236 90.005,139.179 84.562 C 137.163 80.974,136.925 80.644,134.200 77.664 C 127.498 70.335,115.520 66.959,105.809 69.664 M281.000 69.402 C 269.118 72.453,260.965 81.265,258.820 93.373 C 258.562 94.833,258.400 103.871,258.400 116.849 L 258.400 137.952 256.900 138.109 L 255.400 138.266 257.093 138.333 L 258.786 138.400 258.948 116.900 C 259.106 95.926,259.294 91.398,260.037 90.620 C 260.237 90.411,260.400 89.914,260.400 89.515 C 260.400 89.116,260.560 88.477,260.756 88.095 C 260.952 87.713,261.530 86.500,262.041 85.400 C 267.645 73.324,281.130 67.006,294.386 70.244 C 296.853 70.847,301.564 72.682,302.000 73.211 C 302.110 73.344,303.010 74.007,304.000 74.685 C 305.946 76.016,310.240 80.396,311.180 82.006 C 313.180 85.436,314.049 87.365,314.872 90.200 L 315.800 93.400 315.921 197.800 C 316.011 274.482,315.922 302.997,315.587 305.200 C 314.518 312.228,311.818 317.527,307.000 322.048 C 304.303 324.579,303.021 325.599,302.533 325.600 C 302.277 325.600,302.007 325.735,301.933 325.900 C 301.811 326.175,298.923 327.651,297.000 328.422 C 291.561 330.602,281.465 330.178,276.305 327.553 C 275.923 327.359,275.338 327.200,275.005 327.200 C 274.672 327.200,274.400 327.020,274.400 326.800 C 274.400 326.580,274.207 326.400,273.972 326.400 C 271.751 326.400,264.209 318.735,262.462 314.703 C 262.104 313.876,261.674 313.200,261.506 313.200 C 261.338 313.200,261.200 312.761,261.200 312.224 C 261.200 311.687,261.020 311.136,260.800 311.000 C 260.580 310.864,260.400 310.349,260.400 309.856 C 260.400 309.363,260.237 308.789,260.037 308.580 C 259.281 307.789,259.104 303.125,258.948 279.900 L 258.788 256.000 259.807 256.000 C 262.253 256.000,263.735 254.972,270.420 248.640 C 273.292 245.919,279.088 240.546,282.200 237.718 C 283.827 236.240,284.944 230.400,283.600 230.400 C 283.380 230.400,283.200 230.158,283.200 229.862 C 283.200 227.371,281.085 227.797,278.200 230.870 L 276.200 233.000 278.413 230.900 C 280.987 228.456,281.721 228.323,282.804 230.100 C 284.285 232.528,283.790 235.566,281.582 237.600 C 263.059 254.666,261.916 255.600,259.537 255.600 L 258.400 255.600 258.400 279.774 C 258.400 299.324,258.511 304.469,258.978 306.674 C 265.449 337.204,307.274 338.781,315.572 308.808 C 316.865 304.135,316.882 95.384,315.589 90.560 C 311.519 75.370,295.623 65.647,281.000 69.402 M248.643 144.633 C 248.307 145.509,248.349 147.301,248.720 147.885 C 248.890 148.152,249.029 147.387,249.029 146.185 C 249.029 143.800,249.002 143.695,248.643 144.633 M251.400 152.400 C 252.259 153.280,253.052 154.000,253.162 154.000 C 253.272 154.000,252.659 153.280,251.800 152.400 C 250.941 151.520,250.148 150.800,250.038 150.800 C 249.928 150.800,250.541 151.520,251.400 152.400 M235.400 154.400 L 217.000 154.612 235.276 154.706 C 247.132 154.767,253.640 154.659,253.800 154.400 C 253.936 154.180,253.992 154.042,253.924 154.094 C 253.856 154.146,245.520 154.283,235.400 154.400 M188.400 156.252 C 188.950 156.640,192.107 159.622,195.416 162.879 C 201.692 169.055,201.956 169.241,202.851 168.100 C 203.350 167.463,203.336 167.451,202.690 167.957 C 202.300 168.263,201.850 168.382,201.690 168.221 C 198.166 164.666,189.605 156.814,188.664 156.273 C 187.560 155.639,187.527 155.636,188.400 156.252 M211.183 158.100 C 210.440 159.035,210.148 159.546,210.535 159.236 C 211.263 158.651,212.977 156.400,212.694 156.400 C 212.606 156.400,211.926 157.165,211.183 158.100 M207.429 162.362 L 206.258 163.800 207.609 162.513 C 208.351 161.805,208.878 161.158,208.779 161.075 C 208.681 160.992,208.073 161.571,207.429 162.362 M204.581 165.700 L 203.000 167.400 204.700 165.819 C 206.281 164.348,206.584 164.000,206.281 164.000 C 206.216 164.000,205.451 164.765,204.581 165.700 M287.362 171.662 C 287.189 171.942,287.252 172.015,287.521 171.849 C 288.142 171.465,289.200 173.662,289.200 175.334 C 289.200 177.384,288.334 178.701,285.113 181.542 C 283.511 182.956,280.928 185.302,279.372 186.756 C 277.817 188.210,275.567 190.287,274.372 191.371 C 273.178 192.455,271.641 193.860,270.958 194.493 L 269.715 195.645 268.358 194.545 L 267.000 193.445 268.175 194.722 C 269.768 196.454,269.839 196.430,273.490 192.900 C 275.254 191.195,277.215 189.367,277.848 188.839 C 283.346 184.251,288.695 179.003,289.228 177.674 C 290.283 175.045,288.607 169.647,287.362 171.662 M282.000 176.600 C 281.028 177.590,280.323 178.400,280.433 178.400 C 280.543 178.400,281.428 177.590,282.400 176.600 C 283.372 175.610,284.077 174.800,283.967 174.800 C 283.857 174.800,282.972 175.610,282.000 176.600 M125.431 180.872 C 122.489 184.310,124.535 191.646,128.419 191.584 C 129.346 191.570,129.333 191.540,128.180 191.037 C 123.649 189.064,123.068 182.436,127.200 179.848 C 127.932 179.389,128.021 179.218,127.531 179.211 C 127.163 179.205,126.218 179.952,125.431 180.872 M276.981 181.300 L 275.400 183.000 277.100 181.419 C 278.681 179.948,278.984 179.600,278.681 179.600 C 278.616 179.600,277.851 180.365,276.981 181.300 M270.400 187.400 C 269.428 188.390,268.723 189.200,268.833 189.200 C 268.943 189.200,269.828 188.390,270.800 187.400 C 271.772 186.410,272.477 185.600,272.367 185.600 C 272.257 185.600,271.372 186.410,270.400 187.400 M266.419 190.980 C 265.485 191.974,265.524 193.228,266.487 193.168 C 266.889 193.144,266.892 193.093,266.500 192.935 C 265.765 192.638,265.888 191.971,266.870 190.926 C 267.348 190.417,267.649 190.000,267.539 190.000 C 267.429 190.000,266.925 190.441,266.419 190.980 M135.900 191.899 L 142.000 192.021 142.000 197.210 L 142.000 202.400 157.330 202.400 L 172.661 202.400 173.630 201.300 L 174.600 200.200 173.574 201.100 C 172.549 201.999,172.536 202.000,157.474 202.000 L 142.400 202.000 142.400 196.800 L 142.400 191.600 136.100 191.689 L 129.800 191.778 135.900 191.899 M220.575 193.332 C 221.191 194.139,221.776 194.800,221.875 194.800 C 222.153 194.800,220.421 192.460,219.909 192.144 C 219.659 191.989,219.959 192.524,220.575 193.332 M249.308 194.891 C 249.258 196.217,249.362 197.560,249.539 197.876 C 249.730 198.218,249.876 197.416,249.899 195.899 C 249.949 192.606,249.429 191.719,249.308 194.891 M179.175 194.700 C 176.645 197.379,175.427 198.800,175.663 198.800 C 175.774 198.800,177.078 197.450,178.561 195.800 C 181.564 192.458,181.956 191.757,179.175 194.700 M224.632 198.400 C 226.419 200.675,228.684 202.972,227.200 201.005 C 226.870 200.567,226.185 199.757,225.677 199.205 C 225.170 198.652,224.456 197.705,224.091 197.100 C 223.726 196.495,223.274 196.000,223.087 196.000 C 222.900 196.000,223.595 197.080,224.632 198.400 M250.009 199.476 C 250.004 199.738,250.192 200.072,250.427 200.217 C 250.662 200.362,250.758 200.733,250.640 201.040 C 250.516 201.363,250.674 201.600,251.013 201.600 C 251.336 201.600,251.596 201.465,251.591 201.300 C 251.576 200.774,250.018 198.980,250.009 199.476 M195.375 217.300 L 194.200 218.600 195.500 217.425 C 196.712 216.330,196.984 216.000,196.675 216.000 C 196.606 216.000,196.021 216.585,195.375 217.300 M208.296 221.800 C 208.974 222.680,210.216 224.030,211.055 224.800 C 212.053 225.716,211.835 225.370,210.423 223.800 C 207.433 220.474,206.854 219.930,208.296 221.800 M126.042 227.160 C 125.359 227.799,124.800 228.688,124.800 229.137 C 124.800 229.586,124.620 230.064,124.400 230.200 C 124.180 230.336,124.000 230.876,124.000 231.400 C 124.000 231.924,124.180 232.464,124.400 232.600 C 124.634 232.744,124.800 232.333,124.800 231.611 C 124.800 229.175,126.909 225.926,128.037 226.623 C 128.347 226.815,128.420 226.756,128.238 226.462 C 127.806 225.763,127.401 225.891,126.042 227.160 M129.200 227.620 C 130.587 228.561,131.378 228.835,130.400 228.036 C 129.850 227.586,129.220 227.217,129.000 227.215 C 128.780 227.213,128.870 227.396,129.200 227.620 M224.600 229.089 C 242.014 229.368,256.307 229.373,256.138 229.100 C 256.036 228.935,247.368 228.840,236.876 228.890 C 226.384 228.939,220.860 229.029,224.600 229.089 M146.329 229.900 C 152.779 229.962,163.219 229.962,169.529 229.900 C 175.838 229.838,170.560 229.787,157.800 229.787 C 145.040 229.787,139.878 229.838,146.329 229.900 M252.261 232.770 C 251.017 234.074,250.000 235.274,250.000 235.437 C 250.000 235.600,250.054 235.658,250.120 235.567 C 250.187 235.475,251.294 234.275,252.581 232.900 C 253.869 231.525,254.832 230.400,254.722 230.400 C 254.612 230.400,253.504 231.467,252.261 232.770 M269.600 238.863 L 265.000 243.296 269.509 239.195 C 273.552 235.518,274.709 234.369,274.324 234.415 C 274.256 234.423,272.130 236.424,269.600 238.863 M249.443 236.633 C 249.097 237.534,249.142 241.517,249.500 241.738 C 249.665 241.840,249.800 240.591,249.800 238.962 C 249.800 235.731,249.797 235.710,249.443 236.633 M250.002 242.653 C 250.000 243.140,253.004 246.006,253.501 245.991 C 253.666 245.986,253.351 245.637,252.801 245.215 C 252.252 244.793,251.398 243.942,250.903 243.324 C 250.409 242.706,250.003 242.404,250.002 242.653 " stroke="none" fill="#7d87aa" fill-rule="evenodd"></path></g></svg>